<svg width="798" height="903" viewBox="0 0 798 903" fill="none" xmlns="http://www.w3.org/2000/svg">
<circle cx="371" cy="476" r="427" fill="white"/>
<g filter="url(#filter0_d)">
<path d="M222.032 348.624C217.683 349.391 213.618 348.451 209.837 345.803C206.245 343.122 204.065 339.607 203.298 335.258L172.492 160.545C171.725 156.197 172.571 152.148 175.029 148.4C177.677 144.619 181.175 142.345 185.524 141.578L194.6 139.978C198.949 139.211 203.014 140.151 206.795 142.799C210.577 145.447 212.851 148.945 213.617 153.294L241.023 308.72C241.323 310.422 242.23 311.139 243.742 310.873L316.634 298.02C320.983 297.253 324.953 298.21 328.545 300.891C332.293 303.35 334.551 306.753 335.317 311.102L335.467 311.953C336.234 316.302 335.294 320.367 332.646 324.148C330.188 327.896 326.784 330.154 322.435 330.92L222.032 348.624Z" fill="#398840"/>
</g>
<g filter="url(#filter1_d)">
<path d="M299.369 571.166C295.02 570.399 291.521 568.125 288.874 564.344C286.226 560.563 285.286 556.498 286.053 552.149L316.859 377.436C317.626 373.087 319.9 369.589 323.681 366.941C327.462 364.293 331.527 363.353 335.876 364.12L432.309 381.124C436.658 381.89 440.156 384.164 442.804 387.946C445.451 391.727 446.392 395.792 445.625 400.141C444.858 404.49 442.584 407.988 438.803 410.636C435.055 413.094 431.006 413.94 426.658 413.173L356.319 400.77C354.617 400.47 353.616 401.171 353.316 402.873L345.264 448.537C344.964 450.238 345.665 451.239 347.367 451.539L412.884 463.092C417.233 463.859 420.559 466.005 422.862 469.53C425.353 473.089 426.233 476.948 425.499 481.108C424.766 485.268 422.62 488.594 419.061 491.086C415.724 493.422 411.882 494.206 407.533 493.44L342.016 481.887C340.314 481.587 339.313 482.288 339.013 483.99L329.011 540.715C328.711 542.416 329.411 543.417 331.113 543.717L401.452 556.12C405.801 556.887 409.299 559.161 411.947 562.942C414.628 566.534 415.585 570.505 414.818 574.854C414.051 579.202 411.777 582.701 407.996 585.348C404.215 587.996 400.15 588.936 395.801 588.169L299.369 571.166Z" fill="#51B847"/>
</g>
<g filter="url(#filter2_d)">
<path d="M505.459 761.477C501.193 760.334 497.907 757.764 495.599 753.767C493.476 749.819 492.986 745.712 494.129 741.446L540.046 570.083C541.189 565.818 543.666 562.506 547.478 560.149C551.476 557.841 555.607 557.258 559.873 558.401L651.675 582.999C655.94 584.142 659.227 586.712 661.535 590.71C663.843 594.708 664.425 598.839 663.282 603.105C662.139 607.37 659.569 610.657 655.572 612.965C651.624 615.087 647.517 615.577 643.252 614.434L577.043 596.694C575.559 596.296 574.594 596.932 574.147 598.601L561.102 647.284C560.705 648.768 561.248 649.708 562.731 650.106L624.211 666.579C628.291 667.672 631.417 670.1 633.589 673.863C635.811 677.439 636.351 681.361 635.208 685.626C634.065 689.892 631.612 693.111 627.85 695.283C624.137 697.27 620.24 697.716 616.16 696.623L554.681 680.15C553.198 679.752 552.257 680.295 551.859 681.779L533.075 751.882C531.932 756.148 529.362 759.434 525.365 761.742C521.367 764.05 517.235 764.633 512.97 763.49L505.459 761.477Z" fill="#398840"/>
</g>
<g filter="url(#filter3_d)">
<path d="M218.346 610.511L225.46 704.157C225.477 704.764 225.764 705.273 226.322 705.682C226.88 706.092 227.429 706.199 227.97 706.002L272.895 689.651C273.436 689.454 273.789 689.019 273.953 688.346C274.117 687.674 274.01 687.099 273.632 686.624L218.887 610.314C218.822 610.133 218.699 610.076 218.518 610.142C218.338 610.207 218.28 610.33 218.346 610.511ZM207.945 800.025C204.156 801.404 200.621 800.954 197.339 798.675C194.058 796.396 192.392 793.222 192.341 789.154L187.094 600.432C187.142 595.511 188.477 591.04 191.101 587.021C193.905 582.935 197.562 580.072 202.072 578.43L211.815 574.884C216.506 573.177 221.148 573.019 225.742 574.412C230.516 575.74 234.412 578.306 237.432 582.11L354.72 730.053C357.297 733.202 358.06 736.704 357.012 740.559C355.963 744.414 353.544 747.031 349.755 748.41L340.013 751.957C335.683 753.533 331.131 753.657 326.357 752.33C321.698 750.756 317.949 748.034 315.11 744.164L295.319 716.735C294.613 715.357 293.358 714.996 291.554 715.653L230.391 737.915C228.767 738.506 228.038 739.588 228.202 741.163L230.673 774.896C231.166 779.621 230.044 784.116 227.306 788.381C224.682 792.401 221.115 795.232 216.605 796.873L207.945 800.025Z" fill="#51B847"/>
</g>
<defs>
<filter id="filter0_d" x="168.218" y="139.72" width="171.507" height="217.163" filterUnits="userSpaceOnUse" color-interpolation-filters="sRGB">
<feFlood flood-opacity="0" result="BackgroundImageFix"/>
<feColorMatrix in="SourceAlpha" type="matrix" values="0 0 0 0 0 0 0 0 0 0 0 0 0 0 0 0 0 0 127 0"/>
<feOffset dy="4"/>
<feGaussianBlur stdDeviation="2"/>
<feColorMatrix type="matrix" values="0 0 0 0 0 0 0 0 0 0 0 0 0 0 0 0 0 0 0.25 0"/>
<feBlend mode="normal" in2="BackgroundImageFix" result="effect1_dropShadow"/>
<feBlend mode="normal" in="SourceGraphic" in2="effect1_dropShadow" result="shape"/>
</filter>
<filter id="filter1_d" x="281.794" y="363.862" width="168.089" height="232.566" filterUnits="userSpaceOnUse" color-interpolation-filters="sRGB">
<feFlood flood-opacity="0" result="BackgroundImageFix"/>
<feColorMatrix in="SourceAlpha" type="matrix" values="0 0 0 0 0 0 0 0 0 0 0 0 0 0 0 0 0 0 127 0"/>
<feOffset dy="4"/>
<feGaussianBlur stdDeviation="2"/>
<feColorMatrix type="matrix" values="0 0 0 0 0 0 0 0 0 0 0 0 0 0 0 0 0 0 0.25 0"/>
<feBlend mode="normal" in2="BackgroundImageFix" result="effect1_dropShadow"/>
<feBlend mode="normal" in="SourceGraphic" in2="effect1_dropShadow" result="shape"/>
</filter>
<filter id="filter2_d" x="489.529" y="557.833" width="178.321" height="214.224" filterUnits="userSpaceOnUse" color-interpolation-filters="sRGB">
<feFlood flood-opacity="0" result="BackgroundImageFix"/>
<feColorMatrix in="SourceAlpha" type="matrix" values="0 0 0 0 0 0 0 0 0 0 0 0 0 0 0 0 0 0 127 0"/>
<feOffset dy="4"/>
<feGaussianBlur stdDeviation="2"/>
<feColorMatrix type="matrix" values="0 0 0 0 0 0 0 0 0 0 0 0 0 0 0 0 0 0 0.25 0"/>
<feBlend mode="normal" in2="BackgroundImageFix" result="effect1_dropShadow"/>
<feBlend mode="normal" in="SourceGraphic" in2="effect1_dropShadow" result="shape"/>
</filter>
<filter id="filter3_d" x="183.094" y="573.474" width="178.373" height="235.332" filterUnits="userSpaceOnUse" color-interpolation-filters="sRGB">
<feFlood flood-opacity="0" result="BackgroundImageFix"/>
<feColorMatrix in="SourceAlpha" type="matrix" values="0 0 0 0 0 0 0 0 0 0 0 0 0 0 0 0 0 0 127 0"/>
<feOffset dy="4"/>
<feGaussianBlur stdDeviation="2"/>
<feColorMatrix type="matrix" values="0 0 0 0 0 0 0 0 0 0 0 0 0 0 0 0 0 0 0.25 0"/>
<feBlend mode="normal" in2="BackgroundImageFix" result="effect1_dropShadow"/>
<feBlend mode="normal" in="SourceGraphic" in2="effect1_dropShadow" result="shape"/>
</filter>
</defs>
</svg>
